# xmcd CD database file
#
# Track frame offsets:
#	150
#	17877
#	35023
#	50517
#	68681
#	86086
#	102101
#	121380
#	137883
#	155069
#	178101
#	194983
#	206391
#	217191
#	244332
#
# Disc length: 3735 seconds
#
# Revision: 1
# Processed by: cddbd v1.5.2PL0 Copyright (c) Steve Scherf et al.
# Submitted via: CDex 1.70beta2
#
DISCID=ea0e950f
DTITLE=Slow Horses - Silent Skies
DYEAR=2006
DGENRE=Country
TTITLE0=Flammable Heart
TTITLE1=Shouldn't We Stop
TTITLE2=Two Hearts
TTITLE3=Run Run Run
TTITLE4=A Million Miles
TTITLE5=And Then You Smile
TTITLE6=Overtime
TTITLE7=On Our Way Home
TTITLE8=Where Do We Go From Here
TTITLE9=Old Steps
TTITLE10=One Look Back
TTITLE11=Irish Fly
TTITLE12=Like That
TTITLE13=Roll Away
TTITLE14=Data
EXTD=YEAR: 2006
EXTT0=
EXTT1=
EXTT2=
EXTT3=
EXTT4=
EXTT5=
EXTT6=
EXTT7=
EXTT8=
EXTT9=
EXTT10=
EXTT11=
EXTT12=
EXTT13=
EXTT14=
PLAYORDER=
